<?xml version="1.0" encoding="UTF-8"?>
<svg width="24px" height="24px" viewBox="0 0 24 24" version="1.1" xmlns="http://www.w3.org/2000/svg">
    <title>ThunderCode</title>
    <g stroke="none" stroke-width="1" fill="none" fill-rule="evenodd">
        <path d="M11.2128544,2.02061731 L3.93644422,12.9510293 C3.57271436,13.4774317 3.67183247,14.1939029 4.16518245,14.5970471 C4.36268744,14.7662436 4.60815432,14.8656141 4.86454796,14.8817093 L10.0225115,15.1988534 L8.0701377,21.8785539 C7.87860535,22.5947772 8.27817604,23.3332448 8.99439933,23.5247772 C9.36708837,23.6258857 9.76938037,23.5483269 10.0784474,23.3124293 L20.0631669,15.2748564 C20.5435562,14.8847122 20.6551304,14.1938561 20.3161316,13.6713743 C20.1475351,13.4124307 19.8933682,13.2273222 19.5981747,13.1489906 L14.4402112,11.8311465 L16.3925849,5.15144597 C16.5841173,4.43522268 16.1845466,3.69675507 15.4683233,3.50522271 C15.0956343,3.40411425 14.6933423,3.48167305 14.3842752,3.71757065 L11.2128544,2.02061731 Z" fill="#FFD700" transform="translate(12.000000, 13.000000) rotate(-360.000000) translate(-12.000000, -13.000000)"></path>
    </g>
</svg>
